# xmcd CD database file
#
# Track frame offsets:
#	150
#	21692
#	41147
#	62707
#
# Disc length: 1093 seconds
#
# Revision: 2
# Processed by: cddbd v1.5.1PL0 Copyright (c) Steve Scherf et al.
# Submitted via: CDex 1.51
#
DISCID=37044304
DTITLE=高取ヒデアキ - Sand Mission
DYEAR=2004
DGENRE=JPop
TTITLE0=Sand Mission
TTITLE1=砂ぼうず絵描き唄
TTITLE2=Sand Mission（Instrumental）
TTITLE3=砂ぼうず絵描き唄（Instrumental）
EXTD=YEAR: 2004
EXTT0=
EXTT1=
EXTT2=
EXTT3=
PLAYORDER=
